<svg width="65" height="65" viewBox="0 0 65 65" fill="none" xmlns="http://www.w3.org/2000/svg">
<path d="M13.5387 32.0166C12.8315 32.0166 12.1532 32.2975 11.6531 32.7976C11.153 33.2976 10.8721 33.9758 10.8721 34.6829V56.0135C10.8721 56.7206 11.153 57.3988 11.6531 57.8989C12.1532 58.3989 12.8315 58.6798 13.5387 58.6798C14.246 58.6798 14.9243 58.3989 15.4244 57.8989C15.9245 57.3988 16.2054 56.7206 16.2054 56.0135V34.6829C16.2054 33.9758 15.9245 33.2976 15.4244 32.7976C14.9243 32.2975 14.246 32.0166 13.5387 32.0166ZM26.8721 5.35345C26.1648 5.35345 25.4865 5.63437 24.9865 6.1344C24.4864 6.63443 24.2054 7.31262 24.2054 8.01977V56.0135C24.2054 56.7206 24.4864 57.3988 24.9865 57.8989C25.4865 58.3989 26.1648 58.6798 26.8721 58.6798C27.5793 58.6798 28.2576 58.3989 28.7577 57.8989C29.2578 57.3988 29.5387 56.7206 29.5387 56.0135V8.01977C29.5387 7.31262 29.2578 6.63443 28.7577 6.1344C28.2576 5.63437 27.5793 5.35345 26.8721 5.35345ZM53.5387 42.6819C52.8315 42.6819 52.1532 42.9628 51.6531 43.4628C51.153 43.9629 50.8721 44.6411 50.8721 45.3482V56.0135C50.8721 56.7206 51.153 57.3988 51.6531 57.8989C52.1532 58.3989 52.8315 58.6798 53.5387 58.6798C54.246 58.6798 54.9243 58.3989 55.4244 57.8989C55.9244 57.3988 56.2054 56.7206 56.2054 56.0135V45.3482C56.2054 44.6411 55.9244 43.9629 55.4244 43.4628C54.9243 42.9628 54.246 42.6819 53.5387 42.6819ZM40.2054 21.3514C39.4982 21.3514 38.8199 21.6323 38.3198 22.1323C37.8197 22.6323 37.5387 23.3105 37.5387 24.0177V56.0135C37.5387 56.7206 37.8197 57.3988 38.3198 57.8989C38.8199 58.3989 39.4982 58.6798 40.2054 58.6798C40.9126 58.6798 41.5909 58.3989 42.091 57.8989C42.5911 57.3988 42.8721 56.7206 42.8721 56.0135V24.0177C42.8721 23.3105 42.5911 22.6323 42.091 22.1323C41.5909 21.6323 40.9126 21.3514 40.2054 21.3514Z" fill="#340D73"/>
</svg>
