<svg width="62" height="54" viewBox="0 0 62 54" fill="none" xmlns="http://www.w3.org/2000/svg">
<path d="M34.6709 27.2999C34.2022 27.0605 33.6252 27.2452 33.3851 27.7151L26.9858 40.2211C26.7457 40.691 26.9316 41.2667 27.401 41.5067C27.5404 41.578 27.6888 41.6118 27.8353 41.6118C28.1823 41.6118 28.5173 41.422 28.6861 41.0922L35.0848 28.5861C35.3268 28.1156 35.1408 27.5406 34.6709 27.2999Z" fill="#340D73"/>
<path d="M41.3669 26.8222C40.9937 26.4497 40.3894 26.4497 40.0162 26.8222C39.643 27.1947 39.643 27.8002 40.0162 28.1727L46.1188 34.2726L40.0162 40.3725C39.643 40.745 39.643 41.3499 40.0162 41.723C40.2028 41.9096 40.4473 42.0026 40.6919 42.0026C40.9364 42.0026 41.1809 41.9096 41.3675 41.723L48.1464 34.9476C48.3254 34.7686 48.426 34.5254 48.426 34.272C48.426 34.0186 48.3254 33.776 48.1464 33.5964L41.3669 26.8222Z" fill="#340D73"/>
<path d="M22.0729 26.8227C21.7004 26.4496 21.0954 26.4496 20.7222 26.8227L13.9446 33.5975C13.7657 33.7764 13.665 34.0197 13.665 34.2731C13.665 34.5265 13.7657 34.7691 13.9446 34.9487L20.7222 41.7235C20.9088 41.9101 21.1534 42.003 21.3979 42.003C21.6424 42.003 21.887 41.9101 22.0736 41.7235C22.4467 41.3504 22.4467 40.7461 22.0736 40.373L15.9722 34.2731L22.0736 28.1732C22.4461 27.8001 22.4461 27.1958 22.0729 26.8227Z" fill="#340D73"/>
<path d="M60.2588 0.837769H1.83218C1.30426 0.837769 0.876953 1.26502 0.876953 1.79287V52.8416C0.876953 53.3688 1.30426 53.7967 1.83218 53.7967H60.2588C60.786 53.7967 61.214 53.3688 61.214 52.8416V1.79287C61.214 1.26502 60.786 0.837769 60.2588 0.837769ZM59.3035 2.74797V14.758H2.7874V2.74797H59.3035ZM2.7874 51.8865V16.6682H59.3035V51.8865H2.7874Z" fill="#340D73"/>
<path d="M7.84097 9.3947H12.2286C12.7565 9.3947 13.1839 8.9674 13.1839 8.43948C13.1839 7.91156 12.7565 7.48425 12.2286 7.48425H7.84097C7.31305 7.48425 6.88574 7.91156 6.88574 8.43948C6.88574 8.9674 7.31305 9.3947 7.84097 9.3947Z" fill="#340D73"/>
<path d="M17.2433 9.3947H21.631C22.1589 9.3947 22.5862 8.9674 22.5862 8.43948C22.5862 7.91156 22.1589 7.48425 21.631 7.48425H17.2433C16.7154 7.48425 16.2881 7.91156 16.2881 8.43948C16.2881 8.9674 16.716 9.3947 17.2433 9.3947Z" fill="#340D73"/>
</svg>
