<svg width="64" height="64" viewBox="0 0 64 64" fill="none" xmlns="http://www.w3.org/2000/svg">
<path d="M63.2467 11.9271L51.9992 0.681034C51.5754 0.257364 50.8892 0.257364 50.4655 0.681034L30.4542 20.689L18.3737 8.80452C18.3643 8.79512 18.352 8.78861 18.3419 8.77994C18.3021 8.74379 18.2594 8.71126 18.2139 8.68089C18.1922 8.66643 18.1719 8.65052 18.1495 8.63751C18.096 8.60714 18.0389 8.58329 17.9796 8.5616C17.9644 8.55653 17.9514 8.54714 17.9362 8.54208L1.57431 3.43056C1.19108 3.31126 0.769521 3.41393 0.483903 3.69878C0.198286 3.98436 0.0948853 4.40442 0.21564 4.78905L5.32855 21.1481C5.35965 21.2471 5.40737 21.3382 5.46449 21.4235C5.48257 21.451 5.50426 21.4734 5.52451 21.4987C5.55126 21.532 5.57296 21.5681 5.60332 21.5978L17.6716 33.47L0.35881 50.7812C-0.0649159 51.2048 -0.0649159 51.8909 0.35881 52.3146L11.6071 63.5621C11.8103 63.7653 12.0865 63.8795 12.3743 63.8795C12.6621 63.8795 12.9375 63.7653 13.1415 63.5621L30.6328 46.0731L44.785 59.825C44.9657 59.9993 45.1928 60.0838 45.4249 60.1091C47.0663 61.631 49.1835 62.4733 51.4352 62.4733C53.8011 62.4733 56.026 61.5522 57.6985 59.8792C61.1064 56.4718 61.1447 50.959 57.8265 47.4959C57.7737 47.3159 57.6797 47.1496 57.5423 47.0173L43.3489 33.3579L63.2474 13.4613C63.6704 13.0369 63.6704 12.3508 63.2467 11.9271ZM16.2717 10.2953L15.4611 13.0499L11.6823 14.1611C11.3287 14.2652 11.0517 14.5414 10.9476 14.8957L9.83697 18.6733L7.0813 19.4838L2.90406 6.11862L16.2717 10.2953ZM12.3735 61.2616L2.65893 51.5475L6.74579 47.4612L11.6027 52.3175C11.8146 52.5293 12.0923 52.6349 12.3699 52.6349C12.6476 52.6349 12.9253 52.5293 13.1371 52.3175C13.5608 51.8938 13.5608 51.2077 13.1371 50.7841L8.28017 45.9277L12.26 41.9484L17.117 46.8047C17.3288 47.0166 17.6065 47.1221 17.8841 47.1221C18.1618 47.1221 18.4395 47.0166 18.6513 46.8047C19.0751 46.3811 19.0751 45.695 18.6513 45.2713L13.7944 40.415L19.224 34.9861L29.0775 44.5613L12.3735 61.2616ZM56.1627 58.3451C53.7353 60.7707 49.895 60.9362 47.2716 58.8475L56.6659 49.4545C58.7549 52.0782 58.5893 55.9194 56.1627 58.3451ZM45.529 57.5237L19.9016 32.6204L8.43925 21.3447L11.017 20.587C11.3706 20.4829 11.6476 20.2068 11.7517 19.8525L12.8631 16.0749L16.6419 14.9636C16.9955 14.8595 17.2724 14.5834 17.3765 14.2291L18.1445 11.6198L41.0271 34.1308L55.2422 47.8126L45.529 57.5237ZM41.7936 31.8454L32.0002 22.2102L37.5672 16.6439L42.4241 21.5002C42.636 21.712 42.9136 21.8176 43.1913 21.8176C43.469 21.8176 43.7466 21.712 43.9585 21.5002C44.3822 21.0772 44.3822 20.3897 43.9585 19.9667L39.1015 15.1104L43.6237 10.5889L48.4806 15.4452C48.6925 15.657 48.9702 15.7626 49.2478 15.7626C49.5255 15.7626 49.8032 15.657 50.015 15.4452C50.4387 15.0222 50.4387 14.3347 50.015 13.9117L45.1581 9.0554L51.2334 2.98086L60.9466 12.6942L41.7936 31.8454Z" fill="#340D73"/>
</svg>
