<svg width="58" height="55" viewBox="0 0 58 55" fill="none" xmlns="http://www.w3.org/2000/svg">
<path d="M28.9392 40.305C28.9902 40.3445 29.0478 40.375 29.1092 40.395C29.1687 40.4254 29.233 40.4457 29.2992 40.455C29.5644 40.455 29.8188 40.3496 30.0063 40.1621C30.1938 39.9745 30.2992 39.7202 30.2992 39.455C30.2992 39.1897 30.1938 38.9354 30.0063 38.7478C29.8188 38.5603 29.5644 38.455 29.2992 38.455C29.233 38.4642 29.1687 38.4845 29.1092 38.515C29.0478 38.5349 28.9902 38.5654 28.9392 38.605L28.7792 38.725C28.6855 38.8179 28.6111 38.9285 28.5603 39.0504C28.5095 39.1722 28.4834 39.3029 28.4834 39.435C28.4834 39.567 28.5095 39.6977 28.5603 39.8195C28.6111 39.9414 28.6855 40.052 28.7792 40.145L28.9392 40.305Z" fill="#340D73"/>
<path d="M53.0696 32.9668C52.3205 32.9705 51.5929 33.2171 50.996 33.6697C50.3991 34.1222 49.9653 34.7563 49.7596 35.4765H47.1896V31.477H53.9296C54.0752 31.4746 54.2186 31.4405 54.3496 31.377C60.4996 24.5679 55.3496 13.0594 46.3496 12.5795C44.4578 10.2471 41.8817 8.56698 38.9843 7.77592C36.087 6.98487 33.0145 7.12271 30.1996 8.17003C25.5196 -3.30846 9.07961 -0.458837 8.31961 11.8795C6.40447 12.4533 4.66886 13.5093 3.2792 14.9465C1.88954 16.3836 0.892435 18.1536 0.383491 20.0867C-0.125453 22.0198 -0.129166 24.0513 0.372708 25.9862C0.874582 27.9212 1.86521 29.6948 3.24961 31.137C3.34332 31.2437 3.45867 31.3292 3.58799 31.3878C3.7173 31.4464 3.85762 31.4768 3.99961 31.477H10.8396V35.4765H8.23961C7.99963 34.6792 7.48089 33.9947 6.77809 33.5481C6.07528 33.1015 5.23529 32.9225 4.41144 33.0438C3.58758 33.165 2.83482 33.5785 2.29055 34.2087C1.74629 34.8388 1.44682 35.6437 1.44682 36.4763C1.44682 37.309 1.74629 38.1138 2.29055 38.744C2.83482 39.3742 3.58758 39.7876 4.41144 39.9089C5.23529 40.0301 6.07528 39.8511 6.77809 39.4045C7.48089 38.9579 7.99963 38.2735 8.23961 37.4762H11.7796C11.9146 37.4796 12.0488 37.4557 12.1743 37.4059C12.2997 37.356 12.4138 37.2813 12.5096 37.1862C12.6035 37.0916 12.6775 36.9792 12.7273 36.8556C12.7771 36.7319 12.8017 36.5996 12.7996 36.4663V31.477H18.6596V44.4753H13.1596C12.9196 43.678 12.4009 42.9936 11.6981 42.547C10.9953 42.1003 10.1553 41.9213 9.33144 42.0426C8.50758 42.1639 7.75482 42.5773 7.21055 43.2075C6.66629 43.8377 6.36682 44.6425 6.36682 45.4752C6.36682 46.3078 6.66629 47.1126 7.21055 47.7428C7.75482 48.373 8.50758 48.7864 9.33144 48.9077C10.1553 49.029 10.9953 48.85 11.6981 48.4034C12.4009 47.9567 12.9196 47.2723 13.1596 46.475H19.6696C19.9348 46.475 20.1892 46.3697 20.3767 46.1822C20.5643 45.9947 20.6696 45.7403 20.6696 45.4752V31.477H28.4896V36.4763C28.4896 36.7415 28.595 36.9958 28.7825 37.1833C28.97 37.3709 29.2244 37.4762 29.4896 37.4762C29.7548 37.4762 30.0092 37.3709 30.1967 37.1833C30.3843 36.9958 30.4896 36.7415 30.4896 36.4763V31.477H37.3296V45.4752C37.3296 45.7403 37.435 45.9947 37.6225 46.1822C37.81 46.3697 38.0644 46.475 38.3296 46.475H44.7996C45.0396 47.2723 45.5583 47.9567 46.2611 48.4034C46.9639 48.85 47.8039 49.029 48.6278 48.9077C49.4516 48.7864 50.2044 48.373 50.7487 47.7428C51.2929 47.1126 51.5924 46.3078 51.5924 45.4752C51.5924 44.6425 51.2929 43.8377 50.7487 43.2075C50.2044 42.5773 49.4516 42.1639 48.6278 42.0426C47.8039 41.9213 46.9639 42.1003 46.2611 42.547C45.5583 42.9936 45.0396 43.678 44.7996 44.4753H39.3296V31.477H45.1896V36.4763C45.1875 36.6096 45.2121 36.7419 45.2619 36.8656C45.3117 36.9892 45.3857 37.1016 45.4796 37.1962C45.5754 37.2913 45.6895 37.3661 45.8149 37.4159C45.9404 37.4657 46.0747 37.4896 46.2096 37.4862H49.7496C49.9367 38.101 50.2908 38.6518 50.7726 39.0771C51.2544 39.5025 51.8449 39.7857 52.4782 39.8951C53.1115 40.0046 53.7628 39.9361 54.3594 39.6972C54.956 39.4583 55.4746 39.0584 55.8573 38.5421C56.2399 38.0258 56.4717 37.4134 56.5266 36.7731C56.5816 36.1328 56.4577 35.4899 56.1686 34.9159C55.8796 34.3419 55.4368 33.8595 54.8896 33.5224C54.3424 33.1853 53.7123 33.0068 53.0696 33.0068V32.9668ZM4.92961 37.9661C4.53178 37.9661 4.15025 37.8081 3.86895 37.5269C3.58764 37.2456 3.42961 36.8641 3.42961 36.4663C3.42961 36.0686 3.58764 35.6871 3.86895 35.4058C4.15025 35.1245 4.53178 34.9665 4.92961 34.9665C5.32611 34.9665 5.70637 35.124 5.98673 35.4043C6.2671 35.6847 6.42461 36.0649 6.42461 36.4613C6.42461 36.8578 6.2671 37.238 5.98673 37.5183C5.70637 37.7986 5.32611 37.9561 4.92961 37.9561V37.9661ZM9.83961 46.965C9.44178 46.965 9.06025 46.8069 8.77895 46.5257C8.49764 46.2444 8.33961 45.8629 8.33961 45.4652C8.33961 45.0674 8.49764 44.6859 8.77895 44.4046C9.06025 44.1234 9.44178 43.9654 9.83961 43.9654C10.2348 43.9654 10.6138 44.1223 10.8932 44.4017C11.1726 44.6811 11.3296 45.06 11.3296 45.4552C11.3296 45.8503 11.1726 46.2292 10.8932 46.5086C10.6138 46.788 10.2348 46.945 9.83961 46.945V46.965ZM48.1096 43.9654C48.5074 43.9654 48.889 44.1234 49.1703 44.4046C49.4516 44.6859 49.6096 45.0674 49.6096 45.4652C49.6096 45.8629 49.4516 46.2444 49.1703 46.5257C48.889 46.8069 48.5074 46.965 48.1096 46.965C47.7144 46.965 47.3354 46.808 47.056 46.5286C46.7766 46.2492 46.6196 45.8703 46.6196 45.4752C46.6196 45.08 46.7766 44.7011 47.056 44.4217C47.3354 44.1423 47.7144 43.9853 48.1096 43.9853V43.9654ZM1.99961 23.0381C1.98763 20.8501 2.72676 18.7242 4.09358 17.0154C5.46041 15.3067 7.37217 14.1185 9.50961 13.6493C9.76929 13.5985 9.99825 13.4469 10.1463 13.2276C10.2944 13.0083 10.3495 12.7393 10.2996 12.4795C10.2461 10.1968 11.029 7.97321 12.501 6.22751C13.973 4.48182 16.0325 3.33442 18.2917 3.00136C20.551 2.6683 22.854 3.17255 24.7673 4.41918C26.6805 5.66581 28.072 7.56879 28.6796 9.76982C28.7204 9.90829 28.7906 10.0363 28.8856 10.145C28.9805 10.2538 29.0979 10.3407 29.2296 10.3997C29.3612 10.4607 29.5046 10.4922 29.6496 10.4922C29.7947 10.4922 29.938 10.4607 30.0696 10.3997C31.6911 9.62988 33.4646 9.23353 35.2596 9.23989C37.1656 9.23989 39.0456 9.68241 40.7514 10.5326C42.4572 11.3828 43.9423 12.6174 45.0896 14.1393C45.1807 14.2576 45.2971 14.3541 45.4304 14.4216C45.5636 14.489 45.7103 14.5258 45.8596 14.5292C53.1496 14.6192 57.5796 23.428 53.4096 29.4572H4.40961C2.84082 27.6886 1.98232 25.402 1.99961 23.0381ZM53.0696 37.9261C52.6718 37.9261 52.2902 37.7681 52.0089 37.4869C51.7276 37.2056 51.5696 36.8241 51.5696 36.4263C51.5696 36.0286 51.7276 35.6471 52.0089 35.3658C52.2902 35.0845 52.6718 34.9265 53.0696 34.9265C53.4674 34.9265 53.849 35.0845 54.1303 35.3658C54.4116 35.6471 54.5696 36.0286 54.5696 36.4263C54.5696 36.8241 54.4116 37.2056 54.1303 37.4869C53.849 37.7681 53.4674 37.9261 53.0696 37.9261Z" fill="#340D73"/>
<path d="M39.6198 47.9936C38.8733 47.9949 38.1471 48.2368 37.549 48.6835C36.9509 49.1302 36.5128 49.7579 36.2998 50.4733H30.4898V42.4744C30.4898 42.2092 30.3845 41.9549 30.1969 41.7673C30.0094 41.5798 29.755 41.4745 29.4898 41.4745C29.2246 41.4745 28.9702 41.5798 28.7827 41.7673C28.5952 41.9549 28.4898 42.2092 28.4898 42.4744V50.4733H22.9998C22.7598 49.676 22.2411 48.9916 21.5383 48.545C20.8355 48.0984 19.9955 47.9194 19.1716 48.0406C18.3478 48.1619 17.595 48.5754 17.0508 49.2055C16.5065 49.8357 16.207 50.6406 16.207 51.4732C16.207 52.3058 16.5065 53.1107 17.0508 53.7408C17.595 54.371 18.3478 54.7845 19.1716 54.9057C19.9955 55.027 20.8355 54.848 21.5383 54.4014C22.2411 53.9548 22.7598 53.2703 22.9998 52.473H36.3098C36.497 53.0883 36.8515 53.6393 37.3338 54.0648C37.816 54.4902 38.407 54.7733 39.0408 54.8824C39.6747 54.9915 40.3263 54.9223 40.9231 54.6826C41.5199 54.4429 42.0383 54.0421 42.4205 53.5249C42.8026 53.0077 43.0335 52.3945 43.0874 51.7537C43.1412 51.1129 43.0159 50.4698 42.7254 49.8961C42.435 49.3223 41.9907 48.8406 41.4423 48.5047C40.8939 48.1688 40.2629 47.9918 39.6198 47.9936ZM19.6698 52.943C19.2996 52.9125 18.9544 52.7439 18.7027 52.4707C18.4511 52.1975 18.3114 51.8396 18.3114 51.4682C18.3114 51.0967 18.4511 50.7389 18.7027 50.4657C18.9544 50.1925 19.2996 50.0239 19.6698 49.9934C20.04 50.0239 20.3853 50.1925 20.6369 50.4657C20.8886 50.7389 21.0283 51.0967 21.0283 51.4682C21.0283 51.8396 20.8886 52.1975 20.6369 52.4707C20.3853 52.7439 20.04 52.9125 19.6698 52.943ZM39.6198 52.943C39.2496 52.9125 38.9044 52.7439 38.6527 52.4707C38.4011 52.1975 38.2614 51.8396 38.2614 51.4682C38.2614 51.0967 38.4011 50.7389 38.6527 50.4657C38.9044 50.1925 39.2496 50.0239 39.6198 49.9934C39.99 50.0239 40.3353 50.1925 40.5869 50.4657C40.8386 50.7389 40.9783 51.0967 40.9783 51.4682C40.9783 51.8396 40.8386 52.1975 40.5869 52.4707C40.3353 52.7439 39.99 52.9125 39.6198 52.943Z" fill="#340D73"/>
</svg>
