<svg width="23" height="23" viewBox="0 0 23 23" fill="none" xmlns="http://www.w3.org/2000/svg">
<path d="M14.3209 5.28894C15.2977 5.47866 16.1953 5.95422 16.899 6.65475C17.6027 7.35529 18.0804 8.24894 18.2709 9.22131M14.3209 1.30679C16.3502 1.53122 18.2425 2.43591 19.6872 3.8723C21.1318 5.30869 22.0429 7.19142 22.2709 9.21136M21.2709 17.1557V20.1423C21.2721 20.4196 21.215 20.694 21.1034 20.9481C20.9919 21.2021 20.8282 21.4302 20.623 21.6176C20.4178 21.805 20.1755 21.9477 19.9117 22.0366C19.6479 22.1254 19.3683 22.1584 19.0909 22.1334C16.0138 21.8006 13.0579 20.7538 10.4609 19.0771C8.04476 17.5486 5.99627 15.5093 4.46093 13.1039C2.77091 10.5068 1.71917 7.5498 1.39093 4.4726C1.36594 4.1973 1.3988 3.91984 1.48743 3.65788C1.57606 3.39592 1.7185 3.1552 1.9057 2.95104C2.09289 2.74689 2.32073 2.58378 2.57472 2.47209C2.82871 2.3604 3.10327 2.30259 3.38093 2.30233H6.38093C6.86624 2.29757 7.33672 2.46866 7.70469 2.7837C8.07266 3.09875 8.31301 3.53624 8.38093 4.01465C8.50755 4.97043 8.74238 5.90889 9.08093 6.81211C9.21547 7.16844 9.24459 7.55569 9.16484 7.92799C9.08508 8.30029 8.89979 8.64202 8.63093 8.91269L7.36093 10.177C8.78448 12.6694 10.8574 14.733 13.3609 16.1502L14.6309 14.8859C14.9028 14.6183 15.2461 14.4338 15.62 14.3544C15.994 14.275 16.383 14.304 16.7409 14.4379C17.6482 14.775 18.5909 15.0087 19.5509 15.1348C20.0367 15.203 20.4803 15.4466 20.7975 15.8192C21.1146 16.1918 21.2831 16.6675 21.2709 17.1557Z" stroke="white" stroke-linecap="round" stroke-linejoin="round"/>
</svg>
