<svg width="555" height="285" viewBox="0 0 555 285" fill="none" xmlns="http://www.w3.org/2000/svg">
<mask id="mask0_1653_830" style="mask-type:alpha" maskUnits="userSpaceOnUse" x="0" y="0" width="555" height="285">
<g opacity="0.5">
<path d="M368.009 177.288C386.57 190.864 409.15 202.666 432.436 199.271C455.323 195.908 472.718 174.859 475.387 152.19C478.455 130.393 468.27 110.776 450.353 99.2543C415.409 75.5578 371.016 96.95 341.318 120.335C329.041 130.167 317.738 141.19 307.57 153.249C267.871 186.162 216.912 224.867 162.395 215.526C129.629 208.737 102.877 179.965 95.7591 147.021C92.0157 124.831 95.1345 102.01 104.687 81.6921C124.536 38.8453 175.25 13.1872 220.103 29.0678C237.253 36.8214 251.151 50.1798 264.22 63.3203C256.505 55.9827 248.305 49.189 239.677 42.9868C210.531 19.1346 166.905 25.3001 138.802 47.8444C122.511 60.7586 110.787 78.6891 105.392 98.9429C98.9191 123.698 100.606 151.567 115.885 172.772C133.618 198.804 163.315 212.474 194.332 206.433C235.075 198.711 270.417 172.368 302.109 146.055C312.357 133.929 323.821 122.919 336.317 113.204C368.5 88.1066 417.188 66.4964 454.402 93.369C466.614 101.441 475.547 113.713 479.56 127.933C488.579 160.161 466.644 198.493 432.927 202.105C408.813 204.752 386.11 191.954 367.978 177.194L368.009 177.288Z" fill="url(#paint0_linear_1653_830)"/>
</g>
<g opacity="0.6">
<path d="M245.892 51.8981C235.247 34.6785 214.937 25.8662 195.701 23.1883C166.156 19.7319 136.367 32.7478 114.983 52.9568C88.2919 80.6702 77.5234 126.226 90.4395 162.72C95.4478 176.371 103.626 188.593 114.282 198.35C124.937 208.108 137.754 215.113 151.645 218.77C200.241 228.61 247.672 199.62 283.567 168.481C298.322 155.15 311.809 140.44 323.849 124.544C330.027 116.194 336.96 108.449 344.558 101.408C359.855 86.9761 378.591 76.8349 398.922 71.9825C440.216 61.6757 489.488 84.251 494.918 130.461C499.489 162.066 482.861 196.942 450.924 205.193C441.101 208.079 430.765 208.693 420.677 206.991C410.59 205.288 401.006 201.311 392.633 195.354C384.346 189.414 377.159 182.035 371.402 173.557L371.985 173.152C377.597 181.532 384.854 188.646 393.3 194.047C401.747 199.448 411.202 203.02 421.072 204.54C451.752 208.619 480.161 191.43 487.432 160.323C500.379 104.273 453.04 67.156 400.855 79.736C372.323 86.4619 348.055 106.048 331.366 130.212C292.771 183.926 219.385 243.058 149.835 227.987C108.694 217.96 77.4007 176.857 77.7688 134.104C77.9529 102.779 89.8259 70.8926 111.915 49.0645C141.674 21.4757 188.767 8.89568 225.092 30.3813C234.133 35.1648 241.661 42.4391 246.813 51.3688L246.261 51.7113L245.892 51.8981Z" fill="url(#paint1_linear_1653_830)"/>
</g>
<g opacity="0.7">
<path d="M241.678 51.8833C200.414 -9.24176 105.522 17.8489 77.1437 78.2266C46.4642 141.251 71.468 218.662 143.411 232.456C198.266 241.798 249.501 206.206 284.261 165.975C305.368 139.694 328.808 114.565 351.756 90.0281C367.786 72.4962 389.466 61.3623 412.878 58.6382C436.29 55.9142 459.89 61.7798 479.413 75.175C511.473 96.972 520.708 132.906 507.669 169.151C494.814 203.248 457.938 222.087 423.239 213.711C401.978 209.507 384.89 194.156 373.109 176.344C372.557 175.472 371.575 174.102 371.053 173.231L370.9 173.013C370.9 172.857 370.501 173.012 371.176 172.483C371.851 171.954 371.606 172.483 371.79 172.483C372.495 173.479 373.385 174.756 374.091 175.597C386.117 192.474 403.297 206.736 423.853 210.534C456.772 217.541 491.071 199.543 502.484 167.096C509.295 146.918 509.172 122.568 497.76 104.196C480.364 76.5451 445.605 62.595 413.974 66.8299C392.595 69.8249 372.919 80.311 358.352 96.4738L335.895 121.665C312.824 146.576 293.588 175.037 268.216 197.923C234.468 229.062 188.203 251.669 141.448 243.012C118.138 238.879 96.9643 226.665 81.5388 208.453C66.1133 190.242 57.3924 167.161 56.8645 143.151C55.5453 96.6606 79.3833 49.2054 120.862 28.2803C150.621 12.275 188.94 9.19231 218.239 27.782C227.935 33.6782 236.189 41.7264 242.383 51.3228L241.555 51.9145L241.678 51.8833Z" fill="url(#paint2_linear_1653_830)"/>
</g>
<g opacity="0.8">
<path d="M375.881 171.483C396.927 206.763 422.33 228.685 465.036 220.059C488.751 215.139 508.263 196.581 516.792 173.881C525.321 151.181 526.732 125.024 517.559 102.791C492.586 44.0951 408.984 37.4004 369.009 83.7346C346.337 109.268 319.768 143.427 297.618 169.771C273.841 199.415 246.721 227.346 212.605 244.846C178.52 262.968 136.244 268.48 100.563 251.572C82.9711 243.203 67.6563 230.605 55.9479 214.868C44.2395 199.132 36.4912 180.734 33.3754 161.27C13.8019 50.572 144.497 -40.415 232.516 36.7153C236.427 40.9277 239.826 45.6007 242.64 50.6343L241.474 51.2571C224.969 25.7234 193.4 13.5482 164.131 12.2404C115.044 9.81157 69.025 43.7215 49.7582 88.4366C12.9428 173.102 82.2785 269.975 174.041 247.088C209.23 238.431 239.143 215.949 264.361 189.917C287.524 165.006 314.246 130.754 336.397 104.535C352.688 85.2292 369.04 63.8059 392.724 53.2188C439.326 30.3008 504.52 49.2953 524.125 99.9267C533.512 124.339 531.15 151.835 521.854 175.843C512.558 199.85 491.175 219.063 465.741 223.734C440.308 228.404 414.261 222.551 396.344 202.809C387.789 193.604 380.324 183.415 374.102 172.449L375.881 171.359V171.483Z" fill="url(#paint3_linear_1653_830)"/>
</g>
<path d="M378 170.735C390.272 195.646 410.121 218.719 436.751 227.625C477.677 242.011 521.028 216.913 537.165 177.803C549.437 149.124 547.105 115.526 533.269 87.8125C514.554 47.3323 464.148 29.3654 423.436 44.0628C391.069 54.9613 366.71 81.2111 348.394 109.672C334.373 131.002 315.199 161.05 299.92 181.072C258.411 240.921 190.548 294.853 114.187 282.553C43.2865 271.499 -2.67136 205.298 0.120479 134.365C1.74649 88.622 28.683 47.1766 65.4371 22.11C108.143 -6.94231 167.048 -7.00455 210.459 19.8058C218.098 24.6148 225.152 30.3214 231.475 36.8074C234.882 41.0311 237.959 45.5184 240.678 50.2282L239.666 50.8821C236.74 46.4773 233.478 42.3127 229.91 38.4267C223.371 32.4881 216.162 27.356 208.434 23.1376C163.09 -2.24032 102.252 2.55506 63.0748 37.0878C39.697 56.9542 21.6575 84.0447 16.0431 114.623C8.52667 154.729 21.412 198.137 47.8884 228.528C66.0215 248.373 90.3098 261.309 116.703 265.178C186.821 274.109 246.722 224.386 285.164 169.925C305.627 143.426 326.458 108.551 346.799 81.8339C370.115 52.4702 403.126 28.6491 440.985 25.037C480.592 20.8645 522.224 41.665 540.478 77.9726C556.585 109.547 559.346 148.595 544.283 181.104C517.223 240.672 444.39 256.989 398.923 208.288C388.88 197.76 380.978 185.327 375.668 171.7L377.846 170.797L378 170.735Z" fill="url(#paint4_linear_1653_830)"/>
</mask>
<g mask="url(#mask0_1653_830)">
<path d="M238.106 36.2602H221.802C208.762 36.2602 179.421 37.5827 166.378 42.8729C150.073 49.4856 140.291 66.0158 127.247 85.8525C114.204 105.689 110.943 125.526 114.204 148.669C117.465 171.812 156.595 181.73 192.465 188.342C228.334 194.955 280.508 151.975 280.508 148.669C280.508 145.363 309.856 79.2403 326.16 42.8729C342.465 6.50556 420.726 16.4239 446.812 6.50556C467.682 -1.42914 516.378 29.6484 538.117 46.179C551.16 70.4239 576.595 127.51 573.986 161.893C570.726 204.873 518.552 257.771 515.291 264.383C512.682 269.673 448.986 257.771 417.465 251.159L352.247 188.342C364.204 186.138 392.026 186.979 397.244 186.979C402.461 186.979 412.03 186.138 417.465 188.342C433.769 198.261 453.334 161.893 459.856 142.057C466.378 122.22 437.03 102.383 414.204 99.077C395.943 96.4321 371.813 108.995 362.03 115.608L316.378 168.506L264.204 247.852L133.769 320.587C91.3741 302.955 5.93194 267.028 3.32324 264.383C0.0623741 261.077 -39.068 168.506 -35.8072 118.914C-32.5463 69.3219 13.1059 23.0362 16.3668 23.0362C19.6276 23.0362 6.58411 3.19897 117.454 -13.3316C206.149 -26.5561 234.845 14.2194 238.106 36.2602Z" fill="url(#paint5_linear_1653_830)"/>
<path d="M484.622 267.101C429.71 293.615 374.297 186.634 374.297 186.634H388.414C388.414 186.634 526.175 74.8849 542.435 108.754C558.696 142.623 539.534 240.587 484.622 267.101Z" fill="#7E1E69"/>
<path d="M236.869 38.5282H224.102C224.102 38.5282 -14.6508 221.115 -5.70803 103.332C-5.70803 53.1251 74.1662 -71.6719 156.199 -71.6719C238.232 -71.6719 236.869 38.5282 236.869 38.5282Z" fill="#0098BC"/>
<g filter="url(#filter0_f_1653_830)">
<path d="M27.6094 221.877C80.6287 221.877 123.609 173.84 123.609 114.583C123.609 55.3262 80.6287 7.28906 27.6094 7.28906C-25.41 7.28906 -68.3906 55.3262 -68.3906 114.583C-68.3906 173.84 -25.41 221.877 27.6094 221.877Z" fill="#0098BC"/>
</g>
</g>
<defs>
<filter id="filter0_f_1653_830" x="-78.3906" y="-2.71094" width="212" height="234.588" filterUnits="userSpaceOnUse" color-interpolation-filters="sRGB">
<feFlood flood-opacity="0" result="BackgroundImageFix"/>
<feBlend mode="normal" in="SourceGraphic" in2="BackgroundImageFix" result="shape"/>
<feGaussianBlur stdDeviation="5" result="effect1_foregroundBlur_1653_830"/>
</filter>
<linearGradient id="paint0_linear_1653_830" x1="238.509" y1="130.851" x2="368.899" y2="130.851" gradientUnits="userSpaceOnUse">
<stop offset="0.065" stop-color="#2EB3F6"/>
<stop offset="0.345" stop-color="#0A3BD5"/>
<stop offset="0.62" stop-color="#5321A0"/>
<stop offset="0.96" stop-color="#AE60FC"/>
</linearGradient>
<linearGradient id="paint1_linear_1653_830" x1="233.425" y1="136.132" x2="374.089" y2="136.132" gradientUnits="userSpaceOnUse">
<stop offset="0.065" stop-color="#2EB3F6"/>
<stop offset="0.345" stop-color="#0A3BD5"/>
<stop offset="0.62" stop-color="#5321A0"/>
<stop offset="0.96" stop-color="#AE60FC"/>
</linearGradient>
<linearGradient id="paint2_linear_1653_830" x1="226.875" y1="142.14" x2="380.555" y2="142.14" gradientUnits="userSpaceOnUse">
<stop offset="0.065" stop-color="#2EB3F6"/>
<stop offset="0.345" stop-color="#0A3BD5"/>
<stop offset="0.62" stop-color="#5321A0"/>
<stop offset="0.96" stop-color="#AE60FC"/>
</linearGradient>
<linearGradient id="paint3_linear_1653_830" x1="217.161" y1="148.346" x2="385.021" y2="148.346" gradientUnits="userSpaceOnUse">
<stop offset="0.065" stop-color="#2EB3F6"/>
<stop offset="0.345" stop-color="#0A3BD5"/>
<stop offset="0.62" stop-color="#5321A0"/>
<stop offset="0.96" stop-color="#AE60FC"/>
</linearGradient>
<linearGradient id="paint4_linear_1653_830" x1="206.428" y1="157.239" x2="392.97" y2="157.239" gradientUnits="userSpaceOnUse">
<stop offset="0.065" stop-color="#2EB3F6"/>
<stop offset="0.345" stop-color="#0A3BD5"/>
<stop offset="0.62" stop-color="#5321A0"/>
<stop offset="0.96" stop-color="#AE60FC"/>
</linearGradient>
<linearGradient id="paint5_linear_1653_830" x1="63.3071" y1="136.61" x2="469.19" y2="132.549" gradientUnits="userSpaceOnUse">
<stop stop-color="#0098BC"/>
<stop offset="0.194" stop-color="#ED2724"/>
<stop offset="0.561486" stop-color="#FFB002"/>
<stop offset="1" stop-color="#7E1E69"/>
</linearGradient>
</defs>
</svg>
