<svg width="65" height="65" viewBox="0 0 65 65" fill="none" xmlns="http://www.w3.org/2000/svg">
<path d="M27.7304 48.5116C30.4507 45.1661 32.2592 41.174 32.9804 36.9231C32.9804 35.6133 34.2504 31.9938 32.3304 31.7538C30.6104 31.8438 31.5604 35.3433 31.0104 36.5931C30.4431 39.9467 29.1389 43.1326 27.1918 45.9215C25.2448 48.7103 22.7032 51.0326 19.7504 52.721C19.5217 52.8529 19.3544 53.0699 19.2851 53.3247C19.2158 53.5794 19.25 53.8513 19.3804 54.0809C20.7504 56.1406 26.6604 49.8114 27.7304 48.5116Z" fill="#340D73"/>
<path d="M32.1396 49.3408C35.6196 44.6715 42.1996 27.9336 31.9196 27.7637C30.6605 27.8596 29.4843 28.4284 28.6273 29.3558C27.7703 30.2831 27.296 31.5004 27.2996 32.763C27.3057 36.1023 26.4258 39.3835 24.7496 42.2718C22.7644 45.7053 19.7584 48.4348 16.1496 50.0807C16.0301 50.1352 15.9225 50.2127 15.833 50.3088C15.7434 50.4049 15.6737 50.5176 15.6277 50.6407C15.5349 50.8891 15.5446 51.1643 15.6546 51.4056C15.7647 51.6469 15.9661 51.8346 16.2146 51.9274C16.4631 52.0202 16.7383 52.0106 16.9796 51.9005C19.6207 50.6935 21.9841 48.9542 23.9217 46.7915C25.8593 44.6288 27.3293 42.0893 28.2396 39.3322C28.9476 37.2111 29.3056 34.989 29.2996 32.753C29.299 31.9778 29.5985 31.2325 30.1355 30.6733C30.6724 30.1141 31.4049 29.7844 32.1796 29.7534C39.1796 29.9534 32.9996 45.2214 30.4996 48.191C28.734 50.7312 26.5456 52.9498 24.0296 54.7501C23.9222 54.8267 23.8311 54.9237 23.7613 55.0356C23.6916 55.1475 23.6447 55.2721 23.6233 55.4022C23.602 55.5323 23.6065 55.6653 23.6368 55.7937C23.667 55.922 23.7224 56.0431 23.7996 56.15C25.3996 58.0597 31.1496 50.7207 32.1396 49.3408Z" fill="#340D73"/>
<path d="M39.6703 43.2817C40.8605 39.7391 41.4387 36.0198 41.3803 32.2831C41.2303 25.1641 32.1203 21.0746 26.6703 25.674C20.2503 31.0333 26.4803 38.4123 16.6703 45.1614C15.5998 45.8957 14.4363 46.4841 13.2103 46.9112C13.086 46.9549 12.9716 47.0227 12.8736 47.1108C12.7756 47.1989 12.6959 47.3054 12.6393 47.4243C12.5826 47.5433 12.55 47.6722 12.5433 47.8038C12.5366 47.9354 12.556 48.067 12.6003 48.191C13.7603 50.4907 19.9803 45.3114 21.0003 43.9916C23.7672 40.8912 25.2914 36.8783 25.2803 32.7231C25.281 31.6692 25.5196 30.6291 25.9785 29.6803C26.4374 28.7316 27.1046 27.8987 27.9303 27.2438C32.1703 23.6343 39.2803 26.8138 39.3903 32.3731C39.4426 36.8154 38.5393 41.217 36.7415 45.2796C34.9437 49.3423 32.2934 52.9711 28.9703 55.92C28.7717 56.0952 28.6506 56.342 28.6337 56.6063C28.6168 56.8706 28.7055 57.1309 28.8803 57.3299C30.3103 58.7697 33.0503 54.3802 34.1103 53.4204C36.5445 50.3933 38.4266 46.9614 39.6703 43.2817Z" fill="#340D73"/>
<path d="M45.4203 32.7538C45.5803 20.3454 29.0303 14.9562 21.8003 25.0348C20.1352 27.263 19.2402 29.9723 19.2503 32.7538C19.2345 35.2029 18.4104 37.5783 16.9059 39.511C15.4015 41.4438 13.3009 42.8258 10.9303 43.4424C10.8018 43.475 10.6809 43.5328 10.5749 43.6125C10.4689 43.6922 10.3798 43.7921 10.3128 43.9066C10.2458 44.021 10.2022 44.1477 10.1846 44.2791C10.167 44.4106 10.1758 44.5442 10.2103 44.6723C10.9403 46.562 14.3003 44.1923 15.4303 43.6024C24.5703 37.6932 17.8903 29.1143 26.1803 23.605C33.1803 18.6057 43.7103 24.2249 43.4203 32.7838C43.4134 41.3291 40.2798 49.5765 34.6103 55.9708C34.4701 56.1135 34.376 56.2951 34.3401 56.4919C34.3041 56.6888 34.3281 56.8919 34.4089 57.0749C34.4897 57.258 34.6235 57.4126 34.7931 57.5188C34.9628 57.625 35.1603 57.6779 35.3603 57.6706C42.1903 51.7213 45.2703 41.6727 45.4203 32.7538Z" fill="#340D73"/>
<path d="M42.6797 19.1863C34.5597 12.6871 21.3997 15.7667 16.9997 25.1855C13.9497 30.4248 17.2697 38.0938 9.33973 39.6836C9.20841 39.7053 9.08264 39.7526 8.96961 39.8228C8.85657 39.8931 8.75849 39.9849 8.68095 40.0931C8.60342 40.2013 8.54795 40.3237 8.51771 40.4533C8.48747 40.5829 8.48306 40.7171 8.50473 40.8484C8.5264 40.9798 8.57372 41.1055 8.644 41.2185C8.71427 41.3315 8.80612 41.4296 8.9143 41.5071C9.02248 41.5847 9.14487 41.6401 9.27449 41.6704C9.40411 41.7006 9.53841 41.705 9.66973 41.6833C11.7735 41.3238 13.6834 40.2348 15.064 38.6074C16.4447 36.9801 17.2079 34.9185 17.2197 32.7845C17.2277 29.6658 18.1996 26.6257 20.0022 24.0805C21.8048 21.5353 24.3502 19.6094 27.2897 18.5664C36.6597 14.9468 47.7597 22.6758 47.4397 32.7545C47.4449 40.4482 45.169 47.9708 40.8997 54.3717C40.8265 54.4812 40.7757 54.6041 40.7501 54.7334C40.7245 54.8626 40.7248 54.9956 40.7508 55.1248C40.7768 55.2539 40.8281 55.3767 40.9017 55.4859C40.9753 55.5952 41.0698 55.6889 41.1797 55.7615C42.9797 57.0213 45.5997 49.7023 46.3697 48.3225C50.1197 38.9737 51.9797 25.9354 42.6797 19.1863Z" fill="#340D73"/>
<path d="M10.3105 20.6066C9.55045 22.0764 6.03045 29.2155 8.31045 29.7454C8.44342 29.7727 8.58055 29.7727 8.7135 29.7453C8.84645 29.7179 8.97243 29.6637 9.08377 29.5861C9.19511 29.5084 9.28947 29.4089 9.3611 29.2936C9.43274 29.1784 9.48015 29.0497 9.50045 28.9155C10.1562 25.005 11.8171 21.3321 14.3205 18.2569C27.9005 1.47909 55.5005 11.1078 55.5005 32.755C55.5009 35.1018 55.1434 37.435 54.4404 39.6741C54.4001 39.7995 54.3848 39.9316 54.3957 40.0629C54.4065 40.1942 54.4432 40.322 54.5036 40.4391C54.564 40.5562 54.6469 40.6601 54.7476 40.7451C54.8483 40.83 54.9648 40.8942 55.0905 40.9339C57.3004 41.5338 57.3904 34.2648 57.5005 32.755C57.3105 6.95838 22.9305 -1.80048 10.3105 20.6066Z" fill="#340D73"/>
<path d="M46.1603 16.8357C35.4103 6.97696 16.4103 12.1963 12.2503 26.1744C11.5471 28.2966 11.1892 30.5179 11.1903 32.7536C11.1925 33.5108 10.9082 34.2409 10.3944 34.7973C9.88063 35.3537 9.1754 35.6951 8.42027 35.7532C8.15505 35.7744 7.90913 35.9001 7.73659 36.1026C7.56406 36.3051 7.47905 36.5679 7.50027 36.833C7.52148 37.0982 7.64719 37.3441 7.84973 37.5166C8.05227 37.6891 8.31505 37.7741 8.58027 37.7529C14.5803 37.083 12.5803 30.8138 14.1503 26.8044C23.8803 1.80764 63.6803 14.096 47.8903 49.9613C47.8002 50.201 47.8055 50.4662 47.9052 50.702C48.0048 50.9379 48.1912 51.1266 48.4258 51.2292C48.6605 51.3317 48.9255 51.3404 49.1664 51.2533C49.4072 51.1663 49.6055 50.9901 49.7203 50.7612C52.2069 45.0875 53.484 38.9581 53.4703 32.7636C53.4751 29.7382 52.8241 26.7478 51.5621 23.9981C50.3002 21.2484 48.4573 18.8049 46.1603 16.8357Z" fill="#340D73"/>
<path d="M4.5 13.6764C4.76522 13.6764 5.01957 13.5711 5.20711 13.3836C5.39464 13.1961 5.5 12.9417 5.5 12.6766V5.67747H12.5C12.7652 5.67747 13.0196 5.57213 13.2071 5.38462C13.3946 5.19711 13.5 4.94279 13.5 4.6776C13.5 4.41242 13.3946 4.1581 13.2071 3.97059C13.0196 3.78308 12.7652 3.67773 12.5 3.67773H4.5C4.23478 3.67773 3.98043 3.78308 3.79289 3.97059C3.60536 4.1581 3.5 4.41242 3.5 4.6776V12.6766C3.5 12.9417 3.60536 13.1961 3.79289 13.3836C3.98043 13.5711 4.23478 13.6764 4.5 13.6764Z" fill="#340D73"/>
<path d="M60.5 3.67773H52.5C52.2348 3.67773 51.9804 3.78308 51.7929 3.97059C51.6054 4.1581 51.5 4.41242 51.5 4.6776C51.5 4.94279 51.6054 5.19711 51.7929 5.38462C51.9804 5.57213 52.2348 5.67747 52.5 5.67747H59.5V12.6766C59.5 12.9417 59.6054 13.1961 59.7929 13.3836C59.9804 13.5711 60.2348 13.6764 60.5 13.6764C60.7652 13.6764 61.0196 13.5711 61.2071 13.3836C61.3946 13.1961 61.5 12.9417 61.5 12.6766V4.6776C61.5 4.41242 61.3946 4.1581 61.2071 3.97059C61.0196 3.78308 60.7652 3.67773 60.5 3.67773Z" fill="#340D73"/>
<path d="M60.5 51.6719C60.2348 51.6719 59.9804 51.7772 59.7929 51.9647C59.6054 52.1522 59.5 52.4066 59.5 52.6717V59.6708H52.5C52.2348 59.6708 51.9804 59.7762 51.7929 59.9637C51.6054 60.1512 51.5 60.4055 51.5 60.6707C51.5 60.9359 51.6054 61.1902 51.7929 61.3777C51.9804 61.5652 52.2348 61.6706 52.5 61.6706H60.5C60.7652 61.6706 61.0196 61.5652 61.2071 61.3777C61.3946 61.1902 61.5 60.9359 61.5 60.6707V52.6717C61.5 52.4066 61.3946 52.1522 61.2071 51.9647C61.0196 51.7772 60.7652 51.6719 60.5 51.6719Z" fill="#340D73"/>
<path d="M12.5 59.6708H5.5V52.6717C5.5 52.4066 5.39464 52.1522 5.20711 51.9647C5.01957 51.7772 4.76522 51.6719 4.5 51.6719C4.23478 51.6719 3.98043 51.7772 3.79289 51.9647C3.60536 52.1522 3.5 52.4066 3.5 52.6717V60.6707C3.5 60.9359 3.60536 61.1902 3.79289 61.3777C3.98043 61.5652 4.23478 61.6706 4.5 61.6706H12.5C12.7652 61.6706 13.0196 61.5652 13.2071 61.3777C13.3946 61.1902 13.5 60.9359 13.5 60.6707C13.5 60.4055 13.3946 60.1512 13.2071 59.9637C13.0196 59.7762 12.7652 59.6708 12.5 59.6708Z" fill="#340D73"/>
</svg>
