<svg width="64" height="65" viewBox="0 0 64 65" fill="none" xmlns="http://www.w3.org/2000/svg">
<g clip-path="url(#clip0_1_914)">
<path fill-rule="evenodd" clip-rule="evenodd" d="M47.875 10.7681C40.125 10.7681 32.375 8.89331 32.375 5.39377C32.375 1.89422 40.125 0.0194702 47.875 0.0194702C55.625 0.0194702 63.375 1.89422 63.375 5.39377C63.375 8.89331 55.625 10.7681 47.875 10.7681ZM47.875 1.76924C39.5 1.76924 34.125 3.89396 34.125 5.39377C34.125 6.89357 39.5 9.01829 47.875 9.01829C56.25 9.01829 61.625 6.89357 61.625 5.39377C61.625 3.89396 56.25 1.76924 47.875 1.76924Z" fill="#340D73"/>
<path fill-rule="evenodd" clip-rule="evenodd" d="M62.5 36.1403C62 36.1403 61.625 35.7654 61.625 35.2654V5.39436C61.625 4.89442 62 4.51947 62.5 4.51947C63 4.51947 63.375 4.89442 63.375 5.39436V35.2654C63.375 35.7654 63 36.1403 62.5 36.1403ZM33.25 36.1403C32.75 36.1403 32.375 35.7654 32.375 35.2654V5.39436C32.375 4.89442 32.75 4.51947 33.25 4.51947C33.75 4.51947 34.125 4.89442 34.125 5.39436V35.2654C34.125 35.7654 33.75 36.1403 33.25 36.1403Z" fill="#340D73"/>
<path fill-rule="evenodd" clip-rule="evenodd" d="M47.875 16.5175C40.125 16.5175 32.375 14.6425 32.375 11.1425C32.375 10.6425 32.75 10.2675 33.25 10.2675C33.75 10.2675 34.125 10.6425 34.125 11.1425C34.125 12.6425 39.5 14.7675 47.875 14.7675C56.25 14.7675 61.625 12.6425 61.625 11.1425C61.625 10.6425 62 10.2675 62.5 10.2675C63 10.2675 63.375 10.6425 63.375 11.1425C63.375 14.6425 55.625 16.5175 47.875 16.5175Z" fill="#340D73"/>
<path fill-rule="evenodd" clip-rule="evenodd" d="M47.875 23.2675C40.125 23.2675 32.375 21.3925 32.375 17.8925C32.375 17.3925 32.75 17.0175 33.25 17.0175C33.75 17.0175 34.125 17.3925 34.125 17.8925C34.125 19.3925 39.5 21.5175 47.875 21.5175C56.25 21.5175 61.625 19.3925 61.625 17.8925C61.625 17.3925 62 17.0175 62.5 17.0175C63 17.0175 63.375 17.3925 63.375 17.8925C63.375 21.3925 55.625 23.2675 47.875 23.2675Z" fill="#340D73"/>
<path fill-rule="evenodd" clip-rule="evenodd" d="M47.875 30.1406C40.125 30.1406 32.375 28.2656 32.375 24.7656C32.375 24.2656 32.75 23.8906 33.25 23.8906C33.75 23.8906 34.125 24.2656 34.125 24.7656C34.125 26.2656 39.5 28.3906 47.875 28.3906C56.25 28.3906 61.625 26.2656 61.625 24.7656C61.625 24.2656 62 23.8906 62.5 23.8906C63 23.8906 63.375 24.2656 63.375 24.7656C63.375 28.2656 55.625 30.1406 47.875 30.1406Z" fill="#340D73"/>
<path fill-rule="evenodd" clip-rule="evenodd" d="M47.875 36.2656C40.125 36.2656 32.375 34.3906 32.375 30.8906C32.375 30.3906 32.75 30.0156 33.25 30.0156C33.75 30.0156 34.125 30.3906 34.125 30.8906C34.125 32.3906 39.5 34.5156 47.875 34.5156C56.25 34.5156 61.625 32.3906 61.625 30.8906C61.625 30.3906 62 30.0156 62.5 30.0156C63 30.0156 63.375 30.3906 63.375 30.8906C63.375 34.3906 55.625 36.2656 47.875 36.2656Z" fill="#340D73"/>
<path fill-rule="evenodd" clip-rule="evenodd" d="M47.875 40.6406C40.375 40.6406 32.375 38.7656 32.375 35.2656C32.375 34.7656 32.75 34.3906 33.25 34.3906C33.75 34.3906 34.125 34.7656 34.125 35.2656C34.125 36.5156 39 38.8906 47.875 38.8906C56.75 38.8906 61.625 36.5156 61.625 35.2656C61.625 34.7656 62 34.3906 62.5 34.3906C63 34.3906 63.375 34.7656 63.375 35.2656C63.375 38.7656 55.375 40.6406 47.875 40.6406Z" fill="#340D73"/>
<path fill-rule="evenodd" clip-rule="evenodd" d="M35.75 64.0114H1.625C1.125 64.0114 0.75 63.6365 0.75 63.1365V3.51936C0.75 3.01942 1.125 2.64447 1.625 2.64447H34.5C35 2.64447 35.375 3.01942 35.375 3.51936C35.375 4.01929 35 4.39424 34.5 4.39424H2.5V62.2617H34.875V37.7649C34.875 37.2649 35.25 36.89 35.75 36.89C36.25 36.89 36.625 37.2649 36.625 37.7649V63.1365C36.625 63.6365 36.25 64.0114 35.75 64.0114Z" fill="#340D73"/>
<path fill-rule="evenodd" clip-rule="evenodd" d="M33.25 20.6412H1.625C1.125 20.6412 0.75 20.2663 0.75 19.7664C0.75 19.2664 1.125 18.8915 1.625 18.8915H33.25C33.75 18.8915 34.125 19.2664 34.125 19.7664C34.125 20.2663 33.75 20.6412 33.25 20.6412ZM33.25 12.6423H1.625C1.125 12.6423 0.75 12.2673 0.75 11.7674C0.75 11.2675 1.125 10.8925 1.625 10.8925H33.25C33.75 10.8925 34.125 11.2675 34.125 11.7674C34.125 12.2673 33.75 12.6423 33.25 12.6423Z" fill="#340D73"/>
<path fill-rule="evenodd" clip-rule="evenodd" d="M18.75 56.1371C15.75 56.1371 13.375 53.7625 13.375 50.7628C13.375 47.7632 15.75 45.3885 18.75 45.3885C21.625 45.3885 24 47.7632 24 50.7628C24 53.7625 21.625 56.1371 18.75 56.1371ZM18.75 47.1383C16.75 47.1383 15.125 48.7631 15.125 50.7628C15.125 52.7626 16.75 54.3874 18.75 54.3874C20.625 54.3874 22.25 52.7626 22.25 50.7628C22.25 48.7631 20.625 47.1383 18.75 47.1383Z" fill="#340D73"/>
<path fill-rule="evenodd" clip-rule="evenodd" d="M33.25 29.8908H1.5C1 29.8908 0.625 29.5158 0.625 29.0158C0.625 28.5158 1 28.1408 1.5 28.1408H33.25C33.75 28.1408 34.125 28.5158 34.125 29.0158C34.125 29.5158 33.75 29.8908 33.25 29.8908Z" fill="#340D73"/>
<path fill-rule="evenodd" clip-rule="evenodd" d="M9.5 16.6425H4.375C3.875 16.6425 3.5 16.2675 3.5 15.7675C3.5 15.2675 3.875 14.8925 4.375 14.8925H9.5C10 14.8925 10.375 15.2675 10.375 15.7675C10.375 16.2675 10 16.6425 9.5 16.6425Z" fill="#340D73"/>
<path fill-rule="evenodd" clip-rule="evenodd" d="M30.25 16.6425H28.375C27.875 16.6425 27.5 16.2675 27.5 15.7675C27.5 15.2675 27.875 14.8925 28.375 14.8925H30.25C30.75 14.8925 31.125 15.2675 31.125 15.7675C31.125 16.2675 30.75 16.6425 30.25 16.6425Z" fill="#340D73"/>
<path fill-rule="evenodd" clip-rule="evenodd" d="M26.125 16.6425H24.125C23.625 16.6425 23.25 16.2675 23.25 15.7675C23.25 15.2675 23.625 14.8925 24.125 14.8925H26.125C26.625 14.8925 27 15.2675 27 15.7675C27 16.2675 26.625 16.6425 26.125 16.6425Z" fill="#340D73"/>
<path fill-rule="evenodd" clip-rule="evenodd" d="M17.75 16.6425H12.5C12 16.6425 11.625 16.2675 11.625 15.7675C11.625 15.2675 12 14.8925 12.5 14.8925H17.75C18.25 14.8925 18.625 15.2675 18.625 15.7675C18.625 16.2675 18.25 16.6425 17.75 16.6425Z" fill="#340D73"/>
<path fill-rule="evenodd" clip-rule="evenodd" d="M33.25 33.2653H1.5C1 33.2653 0.625 32.8903 0.625 32.3903C0.625 31.8903 1 31.5153 1.5 31.5153H33.25C33.75 31.5153 34.125 31.8903 34.125 32.3903C34.125 32.8903 33.75 33.2653 33.25 33.2653Z" fill="#340D73"/>
<path fill-rule="evenodd" clip-rule="evenodd" d="M33.375 36.7656H1.5C1 36.7656 0.625 36.3906 0.625 35.8906C0.625 35.3906 1 35.0156 1.5 35.0156H33.375C33.875 35.0156 34.25 35.3906 34.25 35.8906C34.25 36.3906 33.875 36.7656 33.375 36.7656Z" fill="#340D73"/>
<path fill-rule="evenodd" clip-rule="evenodd" d="M35.75 53.8886H22.625C22.375 53.8886 22 53.7636 21.875 53.5136C21.75 53.2636 21.75 52.8886 21.875 52.6386C22.125 52.0136 22.25 51.5136 22.25 50.7636C22.25 50.0136 22.125 49.5136 21.875 49.1386C21.75 48.7636 21.75 48.5136 21.875 48.2636C22 47.8886 22.25 47.7636 22.625 47.7636H35.75C36.25 47.7636 36.625 48.1386 36.625 48.6386C36.625 49.1386 36.25 49.5136 35.75 49.5136H23.875C24 49.8886 24 50.2636 24 50.7636C24 51.2636 24 51.6386 23.875 52.1386H35.75C36.25 52.1386 36.625 52.5136 36.625 53.0136C36.625 53.5136 36.25 53.8886 35.75 53.8886ZM14.75 53.8886H1.625C1.125 53.8886 0.75 53.5136 0.75 53.0136C0.75 52.5136 1.125 52.1386 1.625 52.1386H13.5C13.5 51.6386 13.375 51.2636 13.375 50.7636C13.375 50.2636 13.375 49.8886 13.5 49.5136H1.625C1.125 49.5136 0.75 49.1386 0.75 48.6386C0.75 48.1386 1.125 47.7636 1.625 47.7636H14.75C15 47.7636 15.25 47.8886 15.5 48.1386C15.625 48.3886 15.625 48.6386 15.625 49.0136C15.375 49.5136 15.125 50.1386 15.125 50.7636C15.125 51.3886 15.375 52.0136 15.625 52.7636C15.625 53.0136 15.625 53.2636 15.5 53.5136C15.25 53.7636 15 53.8886 14.75 53.8886Z" fill="#340D73"/>
<path fill-rule="evenodd" clip-rule="evenodd" d="M18.7496 58.8865C15.2496 58.8865 11.9996 56.5118 10.9996 53.2622C10.8746 52.7623 11.1246 52.2624 11.6246 52.1374C12.1246 52.0124 12.6246 52.2624 12.7496 52.7623C13.4996 55.387 15.9996 57.1367 18.7496 57.1367C21.4996 57.1367 23.8746 55.387 24.6246 52.7623C24.7496 52.2624 25.2496 52.0124 25.7496 52.1374C26.2496 52.2624 26.4996 52.7623 26.3746 53.2622C25.3746 56.5118 22.2496 58.8865 18.7496 58.8865ZM25.4996 49.5127C25.1246 49.5127 24.7496 49.2628 24.6246 48.8878C23.8746 46.2632 21.4996 44.5134 18.7496 44.5134C15.8746 44.5134 13.4996 46.2632 12.7496 48.8878C12.6246 49.3877 12.1246 49.6377 11.6246 49.5127C11.1246 49.3877 10.8746 48.8878 10.9996 48.3879C11.9996 45.0133 15.1246 42.7636 18.7496 42.7636C22.2496 42.7636 25.3746 45.0133 26.3746 48.3879C26.4996 48.8878 26.2496 49.3877 25.7496 49.5127C25.6246 49.5127 25.6246 49.5127 25.4996 49.5127Z" fill="#340D73"/>
<path fill-rule="evenodd" clip-rule="evenodd" d="M53.375 59.8869H39.375C38.875 59.8869 38.5 59.5119 38.5 59.012C38.5 58.5121 38.875 58.1371 39.375 58.1371H52.5V48.2634L47.5 53.2628C47.125 53.6377 46.625 53.6377 46.25 53.2628C45.875 52.8878 45.875 52.3879 46.25 52.0129L52.75 45.5138C53 45.2638 53.375 45.1388 53.75 45.2638C54 45.5138 54.25 45.7637 54.25 46.1387V59.012C54.25 59.5119 53.875 59.8869 53.375 59.8869Z" fill="#340D73"/>
<path fill-rule="evenodd" clip-rule="evenodd" d="M59.875 53.5127C59.625 53.5127 59.375 53.3877 59.25 53.2627L52.75 46.7636C52.375 46.3886 52.375 45.8887 52.75 45.5138C53.125 45.1388 53.625 45.1388 54 45.5138L60.5 52.0129C60.875 52.3879 60.875 52.8878 60.5 53.2627C60.375 53.3877 60.125 53.5127 59.875 53.5127Z" fill="#340D73"/>
</g>
<defs>
<clipPath id="clip0_1_914">
<rect width="64" height="63.9916" fill="white" transform="translate(0 0.0194702)"/>
</clipPath>
</defs>
</svg>
